HIERARCHY
ROOT Hips
{
 OFFSET 0.000000 0.000000 0.000000
 CHANNELS 6 Xposition Yposition Zposition Yrotation Xrotation Zrotation
 JOINT Chest
 {
  OFFSET 0.000000 10.383400 0.001500
  CHANNELS 3 Yrotation Xrotation Zrotation
  JOINT Chest2
  {
   OFFSET 0.000000 10.418200 -0.003100
   CHANNELS 3 Yrotation Xrotation Zrotation
   JOINT Chest3
   {
    OFFSET 0.000000 10.375100 0.000000
    CHANNELS 3 Yrotation Xrotation Zrotation
    JOINT Chest4
    {
     OFFSET 0.000000 10.364600 0.000000
     CHANNELS 3 Yrotation Xrotation Zrotation
     JOINT Neck
     {
      OFFSET 0.000000 15.642200 0.000000
      CHANNELS 3 Yrotation Xrotation Zrotation
      JOINT Head
      {
       OFFSET 0.000000 9.697300 -0.006500
       CHANNELS 3 Yrotation Xrotation Zrotation
       End Site
       {
        OFFSET 0.000000 18.492200 -0.003400
       }
      }
     }
     JOINT RightCollar
     {
      OFFSET -3.166800 10.349300 0.000000
      CHANNELS 3 Yrotation Xrotation Zrotation
      JOINT RightShoulder
      {
       OFFSET -14.729700 0.000000 0.000000
       CHANNELS 3 Yrotation Xrotation Zrotation
       JOINT RightElbow
       {
        OFFSET 0.000000 -32.224300 0.000000
        CHANNELS 3 Yrotation Xrotation Zrotation
        JOINT RightWrist
        {
         OFFSET 0.000000 -26.084100 0.000000
         CHANNELS 3 Yrotation Xrotation Zrotation
         End Site
         {
          OFFSET 0.000000 -19.319400 0.000000
         }
        }
       }
      }
     }
     JOINT LeftCollar
     {
      OFFSET 3.166800 10.349300 0.000000
      CHANNELS 3 Yrotation Xrotation Zrotation
      JOINT LeftShoulder
      {
       OFFSET 14.729700 0.000000 0.000000
       CHANNELS 3 Yrotation Xrotation Zrotation
       JOINT LeftElbow
       {
        OFFSET 0.000000 -32.224300 0.000000
        CHANNELS 3 Yrotation Xrotation Zrotation
        JOINT LeftWrist
        {
         OFFSET 0.000000 -26.084100 0.000000
         CHANNELS 3 Yrotation Xrotation Zrotation
         End Site
         {
          OFFSET 0.000000 -19.319400 0.000000
         }
        }
       }
      }
     }
    }
   }
  }
 }
 JOINT RightHip
 {
  OFFSET -8.428900 -0.007500 -0.000800
  CHANNELS 3 Yrotation Xrotation Zrotation
  JOINT RightKnee
  {
   OFFSET 0.000000 -43.834600 0.000700
   CHANNELS 3 Yrotation Xrotation Zrotation
   JOINT RightAnkle
   {
    OFFSET 0.000000 -42.757000 0.001200
    CHANNELS 3 Yrotation Xrotation Zrotation
    JOINT RightToe
    {
     OFFSET 0.000000 -6.946900 15.649300
     CHANNELS 3 Yrotation Xrotation Zrotation
     End Site
     {
      OFFSET 0.000000 -1.580800 6.825800
     }
    }
   }
  }
 }
 JOINT LeftHip
 {
  OFFSET 8.428900 -0.007500 -0.000800
  CHANNELS 3 Yrotation Xrotation Zrotation
  JOINT LeftKnee
  {
   OFFSET 0.000000 -43.834600 0.000700
   CHANNELS 3 Yrotation Xrotation Zrotation
   JOINT LeftAnkle
   {
    OFFSET 0.000000 -42.757000 0.001200
    CHANNELS 3 Yrotation Xrotation Zrotation
    JOINT LeftToe
    {
     OFFSET 0.000000 -6.946900 15.649300
     CHANNELS 3 Yrotation Xrotation Zrotation
     End Site
     {
      OFFSET 0.000000 -1.580800 6.825800
     }
    }
   }
  }
 }
}
MOTION
Frames: 5
Frame Time: 0.008333
-2.975687 126.284229 -0.034920 174.138251 -17.302384 -1.580401 -2.296631 16.997711 1.830551 -0.266356 1.798681 0.228747 -0.440993 2.993311 0.366512 -2.034694 14.937379 1.669372 -3.351585 15.046065 -0.789845 -3.340111 -9.892355 -0.044589 1.528958 1.232649 -2.108403 6.675147 -12.330663 -12.736304 115.133530 -58.991464 -106.068189 12.750462 -4.243072 -35.701562 -10.734591 0.667912 -2.550045 1.562549 -27.255979 18.374930 139.182942 -78.150533 -164.121574 -15.633576 5.494197 3.793293 2.720167 -53.434202 6.434049 -103.739225 84.183725 -100.697300 0.956226 -13.132306 2.659163 0.002193 -0.005832 0.000973 1.609340 -53.465462 -4.771194 101.737351 79.861399 106.714690 8.590033 -12.299863 -8.597404 0.000244 0.001656 0.000108
-2.975315 126.284048 -0.035567 174.131668 -17.303473 -1.587144 -2.290546 16.998152 1.823393 -0.266161 1.797402 0.223861 -0.439419 2.993293 0.368294 -2.030662 14.936968 1.664127 -3.294283 14.992741 -0.815762 -3.271685 -9.949423 -0.081261 1.503001 1.211795 -2.094088 6.669823 -12.359162 -12.691809 115.009128 -59.122606 -105.966886 12.706986 -4.223387 -35.929901 -10.742715 0.663067 -2.530214 1.533627 -27.281712 18.331795 138.624180 -78.214243 -163.529376 -15.576919 5.463319 3.939849 2.713921 -53.433202 6.447308 -103.734514 84.185081 -100.691543 0.952135 -13.132553 2.660603 0.002719 -0.005392 0.001207 1.596403 -53.465958 -4.753123 101.785350 79.866204 106.765515 8.584553 -12.301018 -8.597514 0.000249 0.001161 0.000111
-2.975779 126.283605 -0.035859 174.127077 -17.300419 -1.589049 -2.287333 16.994833 1.814246 -0.265097 1.797219 0.227340 -0.440536 2.989790 0.357622 -2.026909 14.938624 1.655700 -3.233304 14.935125 -0.842740 -3.198967 -10.006298 -0.123076 1.471164 1.190561 -2.077560 6.674757 -12.395739 -12.642487 114.860274 -59.243114 -105.843322 12.649792 -4.185952 -36.086303 -10.765957 0.645062 -2.516185 1.543920 -27.274365 18.322233 138.034610 -78.232014 -162.914105 -15.551149 5.472579 4.078193 2.708980 -53.436638 6.449335 -103.748062 84.191490 -100.706314 0.951995 -13.133754 2.666941 0.000724 -0.006478 0.000321 1.588600 -53.471326 -4.742609 101.813488 79.866810 106.794247 8.573736 -12.298855 -8.595610 0.000149 0.000023 0.000066
-2.975977 126.283311 -0.036778 174.126182 -17.299756 -1.592107 -2.286091 16.994128 1.813470 -0.265456 1.796604 0.222572 -0.446121 2.980273 0.348672 -2.019132 14.943371 1.642376 -3.175573 14.873774 -0.868920 -3.122682 -10.059077 -0.173231 1.446510 1.182602 -2.055334 6.676926 -12.446142 -12.597157 114.696160 -59.348257 -105.704726 12.600246 -4.124778 -36.175557 -10.790872 0.635250 -2.497264 1.561156 -27.307263 18.256829 137.640390 -78.312500 -162.496513 -15.543644 5.512694 4.206211 2.699068 -53.435775 6.455625 -103.774007 84.201116 -100.731742 0.946339 -13.136804 2.663182 0.002121 -0.006247 0.000941 1.580885 -53.473641 -4.734585 101.835624 79.867304 106.819679 8.570267 -12.295229 -8.599367 0.001985 -0.000416 0.000881
-2.975094 126.282626 -0.036278 174.123353 -17.291051 -1.600306 -2.284952 16.983976 1.806438 -0.281778 1.776953 0.209593 -0.433867 2.989403 0.364692 -2.015443 14.938929 1.627422 -3.121008 14.811217 -0.901576 -3.041886 -10.109466 -0.232972 1.427958 1.185370 -2.039459 6.682387 -12.497797 -12.553951 114.520744 -59.437344 -105.548602 12.573678 -4.036645 -36.218498 -10.808896 0.636119 -2.490675 1.591328 -27.346950 18.185202 137.384299 -78.404510 -162.217727 -15.542296 5.574716 4.315956 2.663382 -53.439511 6.478990 -103.744852 84.207128 -100.707009 0.956541 -13.138963 2.651259 0.001602 -0.004703 0.000711 1.565709 -53.484771 -4.716052 101.865753 79.868552 106.853097 8.573230 -12.294781 -8.607232 0.004101 0.000159 0.001820
